<svg
version="1.1"
xmlns="http://www.w3.org/2000/svg"
viewBox="5.5 3.5 53 53" >
	<g>
		<path class="base" style=""
			d="m 14.67462,13.667867 13.949288,-3.14984 c 3.849212,-1.069955 7.163261,-0.855516 10.156625,0.128565 l 7.713892,3.406969 c 4.071915,1.86355 7.396728,4.250154 6.934468,10.265101 l -1.004414,14.230525 c -0.462237,3.834371 -1.996914,7.344515 -4.782123,8.838163 -5.776702,3.097922 -12.075552,5.26892 -15.783678,6.288379 -3.915114,1.076365 -6.88842,0.1594 -9.822828,-2.128101 L 14.836217,45.24795 C 11.353057,41.722137 10.688588,38.475486 10.239132,35.202482 L 9.6605905,21.253194 C 9.8546535,17.781066 10.86648,15.249709 14.67462,13.667867 z" />
	</g>
	<g class="top">
		<path class="top_original" id="top" style=""
			d="m 20.506097,21.661982 c 3.606553,2.675222 8.139813,3.699749 14.4073,1.635184 l 11.00435,-3.49134 C 50.663535,18.385626 51.462761,16.669435 46.21875,14.5 l -8.1875,-3.78125 c -1.472512,-0.680053 -5.108113,-0.8594907 -9.375,0.09375 l -11.75,2.625 C 13.497853,14.36666 12.658451,15.581263 14.5,17.09375 z" />
		<path id="top_hover" style="display: none" class="top_original"
			d="m 20.506097,15.661982 c 3.606553,2.675222 8.139813,3.699749 14.4073,1.635184 l 11.00435,-3.49134 C 50.663535,12.385626 51.462761,10.669435 46.21875,8.5 L 38.03125,4.71875 C 36.558738,4.038697 32.923137,3.8592593 28.65625,4.8125 l -11.75,2.625 C 13.497853,8.36666 12.658451,9.581263 14.5,11.09375 z" />
	</g>
	<g class="left">		
		<path class="left_original" id="left" style=""
			d="m 19.047689,21.75037 c 3.388782,2.489043 6.200126,5.555524 6.452349,11.181126 0,0 0.346281,8.201491 0.574525,12.065009 0.289497,4.900365 -1.248867,7.394733 -2.916816,6.850097 -1.443677,-0.471404 -8.57367,-7.513009 -8.57367,-7.513009 -2.126328,-2.170661 -3.572557,-4.976082 -3.933281,-8.794641 L 9.9878833,21.396817 c 0.1573317,-3.108028 1.0029727,-5.183592 5.1265237,-2.342292 z"/>
		
		<path class="left_original" id="left_hover" style="display: none"
			d="m 13.047689,21.75037 c 3.388782,2.489043 6.200126,5.555524 6.452349,11.181126 0,0 0.346281,8.201491 0.574525,12.065009 0.289497,4.900365 -1.248867,7.394733 -2.916816,6.850097 C 15.71407,51.375198 8.584077,44.333593 8.584077,44.333593 6.457749,42.162932 5.01152,39.357511 4.650796,35.538952 L 3.9878833,21.396817 C 4.145215,18.288789 4.990856,16.213225 9.114407,19.054525 z" />
	</g>
	<g class="right" >
		<path class="right_original" id="right" style=""
			d="M 36.375,24.4375 45.75,21.625 c 4.248829,-1.274649 7.30174,-0.2913 7.3125,1.6875 0.01028,1.891337 -1.125,15.75 -1.125,15.75 -0.383529,3.024378 -1.782071,5.441548 -3.125,7 -1.342929,1.558452 -11.059337,5.762971 -17.125,7.25 -1.77052,0.434052 -3.606065,-0.874497 -4,-4.375 -0.592377,-5.014579 -0.57886,-10.194402 0.125,-15.5625 0.808798,-3.770922 2.631869,-7.149223 8.5625,-8.9375 z"/>
		
		<path class="right_original" id="right_hover" style="display: none"
			d="M 42.375,24.4375 51.75,21.625 c 4.248829,-1.274649 7.30174,-0.2913 7.3125,1.6875 0.01028,1.891337 -1.125,15.75 -1.125,15.75 -0.383529,3.024378 -1.782071,5.441548 -3.125,7 -1.342929,1.558452 -11.059337,5.762971 -17.125,7.25 -1.77052,0.434052 -3.606065,-0.874497 -4,-4.375 -0.592377,-5.014579 -0.57886,-10.194402 0.125,-15.5625 0.808798,-3.770922 2.631869,-7.149223 8.5625,-8.9375 z"/>
	</g>
</svg>
