<?xml version="1.0" encoding="UTF-8" standalone="no"?>
<!-- Created with Inkscape (http://www.inkscape.org/) -->
<svg
   xmlns:dc="http://purl.org/dc/elements/1.1/"
   xmlns:cc="http://creativecommons.org/ns#"
   xmlns:rdf="http://www.w3.org/1999/02/22-rdf-syntax-ns#"
   xmlns:svg="http://www.w3.org/2000/svg"
   xmlns="http://www.w3.org/2000/svg"
   xmlns:xlink="http://www.w3.org/1999/xlink"
   version="1.1"
   width="100"
   height="100"
   id="logo">
  <metadata
     id="metadata7">
    <rdf:RDF>
      <cc:Work
         rdf:about="">
        <dc:format>image/svg+xml</dc:format>
        <dc:type
           rdf:resource="http://purl.org/dc/dcmitype/StillImage" />
        <dc:title></dc:title>
      </cc:Work>
    </rdf:RDF>
  </metadata>
  <g id="g4161" style="display:inline">
    <path id="path4163" style="fill:#5aca00;fill-opacity:1;stroke:none;display:inline" d="M 76.004922,39.075886 C 79.222157,34.147697 82.413376,29.063471 85.493609,23.313269 84.646789,19.528087 83.599043,15.943831 81.656658,13.25423 71.060089,13.735822 61.032489,12.766196 50.803959,14.965315 48.945779,19.113386 49.340185,24.577558 49.405515,29.846454 53.811682,28.4453 61.1232,29.055557 67.122791,28.757549 l -9.899272,10.999194 0.03673,11.402492 8.029409,0.07331 c 5.519893,0.410337 6.631697,6.015098 6.022611,8.878623 -0.608356,2.860096 -3.190449,4.511796 -4.47117,5.172308 6.636414,4.709733 11.136856,-1.822143 17.768,1.93104 1.315184,-2.908988 4.012066,-21.731456 -8.604177,-28.13863 z" />
  </g>
  <g id="g3824" style="display:inline">
    <path id="path3826" style="fill:#ea4335;fill-opacity:1;stroke:none;display:inline" d="m 59.682969,67.652964 c 1.78033,0.974979 4.389133,0.916255 6.427338,-0.190039 6.040498,4.441841 11.376421,-2.562652 17.770656,1.851819 0,0 -0.457659,1.692909 -0.742845,2.638009 C 81.095207,77.516747 74.0459,85.906148 62.857511,85.507454 50.990244,85.084569 38.930196,71.865063 35.237655,61.365999 35.616829,46.115463 33.347638,34.037735 35.608007,17.217282 41.332016,37.451197 46.402184,60.379885 59.682969,67.652964 z" />
  </g>
  <g id="g4169" style="display:inline">
    <path id="path4171" style="fill:#4286f3;fill-opacity:1;stroke:none" d="m 29.71875,16.40625 c -4.414462,0.223036 -10.057711,3.130006 -15.34375,2.90625 2.196569,25.097293 1.658981,47.445773 0,68.6875 6.014488,-2.173362 13.705105,1.025393 18.4375,-1.84375 -1.23411,-6.191914 -1.020855,-15.91342 0.4375,-24.75 0.342022,-17.420679 -1.542323,-30.893859 0.375,-44.125 -1.135162,-0.726686 -2.444971,-0.94883 -3.90625,-0.875 z" />
  </g>
</svg>
