<?xml version="1.0" encoding="UTF-8" standalone="no"?>
<!-- Created with Inkscape (http://www.inkscape.org/) -->
<svg id="svg3003" xmlns:rdf="http://www.w3.org/1999/02/22-rdf-syntax-ns#" xmlns="http://www.w3.org/2000/svg" height="64px" width="64px" version="1.1" xmlns:cc="http://creativecommons.org/ns#" xmlns:dc="http://purl.org/dc/elements/1.1/">
 <metadata id="metadata3008">
  <rdf:RDF>
   <cc:Work rdf:about="">
    <dc:format>image/svg+xml</dc:format>
    <dc:type rdf:resource="http://purl.org/dc/dcmitype/StillImage"/>
    <dc:title/>
   </cc:Work>
  </rdf:RDF>
 </metadata>
 <g id="layer1">
  <path id="path4837" d="m35.944,17.984c-2.4722,0.01936-4.8163,0.33206-7.1663,1.0519,0.02739,1.7286,1.2248,2.8721,2.4326,4.0105,1.9869-0.66302,3.9131-0.97557,5.7856-1.0519-0.72129-1.1515-1.3498-2.3494-1.0519-4.0105zm2.2354,0.13149c-0.19987,1.341,0.23935,2.624,0.98618,3.879,1.4729,0.09758,2.8891,0.34662,4.2735,0.7232-0.3897-2.034,0.10873-2.3904,0.46022-3.0243-1.8846-0.77154-3.8006-1.3548-5.7199-1.5779zm-12.097,1.9066c-1.9499,0.87991-3.9468,2.0953-6.1143,3.7475,0.42422,1.1535,1.0481,2.3386,3.09,3.7475,1.8571-1.436,3.671-2.5686,5.4569-3.4188-1.2092-1.1053-2.1679-2.3699-2.4326-4.0762zm18.935,0.13149c-0.43427,0.85894-0.71163,1.7767-0.46022,2.8928,1.4398,0.46787,2.8138,1.0881,4.142,1.7751-0.08481-0.90558,0.20818-1.5845,0.98618-1.9724-1.4948-1.0047-3.0512-1.9523-4.6679-2.6956zm5.5884,3.353c-0.6197,0.49629-0.99001,1.0861-0.92044,1.8409,1.1755,0.66007,2.2808,1.4088,3.353,2.1696,0.10431-0.46986,0.27663-0.95672,0.7232-1.5121-0.98615-0.85853-2.0596-1.7134-3.1558-2.4983zm-42.011,0.921c-0.7925,0.164-5.6881,17.623-5.1282,18.212,0.2212,0.292,17.739-3.732,18.343-4.734-0.53717-1.4146-5.2412-3.8757-4.7337-4.7337,1.0276-1.1488,2.0791-2.2058,3.09-3.1558-1.3811-0.88104-2.4843-2.0707-3.09-3.8132-1.189,1.0481-2.4383,2.1735-3.7475,3.4845-1.036-0.117-3.9785-5.305-4.7338-5.259zm46.022,2.4326c-0.3813,0.33861-0.62115,0.78331-0.65746,1.3807,0.81017,0.60848,1.5516,1.2178,2.3011,1.8409,0.10075-0.49977,0.30461-0.79336,0.52596-1.0519-0.68173-0.72554-1.3918-1.4508-2.1696-2.1696zm2.9586,3.09c-0.20513,0.17445-0.42599,0.32528-0.39447,0.85469,1.2604,1.0878,2.4095,2.2007,3.4188,3.2215-0.7112-1.2951-1.7831-2.6647-3.0243-4.0762z" fill="#4286f3"/>
 </g>
</svg>
