<?xml version="1.0" encoding="UTF-8" standalone="no"?>
<!-- Created with Inkscape (http://www.inkscape.org/) -->
<svg id="svg3003" xmlns:rdf="http://www.w3.org/1999/02/22-rdf-syntax-ns#" xmlns="http://www.w3.org/2000/svg" height="64px" width="64px" version="1.1" xmlns:cc="http://creativecommons.org/ns#" xmlns:dc="http://purl.org/dc/elements/1.1/">
 <metadata id="metadata3008">
  <rdf:RDF>
   <cc:Work rdf:about="">
    <dc:format>image/svg+xml</dc:format>
    <dc:type rdf:resource="http://purl.org/dc/dcmitype/StillImage"/>
    <dc:title/>
   </cc:Work>
  </rdf:RDF>
 </metadata>
 <g id="layer1">
  <path id="path4837-2" d="m36.212,43.657c-2.4251-0.01899-4.7244-0.32572-7.0295-1.0319,0.02686-1.6956,1.2014-2.8173,2.3862-3.934,1.949,0.65037,3.8385,0.95696,5.6752,1.0319-0.70753,1.1295-1.324,2.3046-1.0319,3.934zm2.1927-0.12898c-0.19605-1.3155,0.23478-2.5739,0.96737-3.805,1.4448-0.09572,2.834-0.34,4.1919-0.7094-0.38226,1.9952,0.10666,2.3448,0.45144,2.9666-1.8486,0.75682-3.7281,1.3289-5.6107,1.5478zm-11.866-1.8702c-1.9127-0.86312-3.8715-2.0553-5.9977-3.676,0.41612-1.1315,1.0281-2.2939,3.0311-3.676,1.8216,1.4086,3.601,2.5196,5.3528,3.3535-1.1861,1.0842-2.1265,2.3247-2.3862,3.9985zm18.573-0.13c-0.42599-0.84256-0.69805-1.7428-0.45144-2.8376,1.4123-0.45894,2.7602-1.0673,4.0629-1.7413-0.08319,0.8883,0.2042,1.5542,0.96737,1.9347-1.4663,0.98556-2.993,1.9151-4.5789,2.6441zm5.4818-3.2891c-0.60787-0.48683-0.97112-1.0654-0.90288-1.8058,1.153-0.64748,2.2373-1.3819,3.2891-2.1282,0.10232,0.4609,0.27135,0.93847,0.7094,1.4833-0.96734,0.84215-2.0203,1.6807-3.0956,2.4507zm-41.21-0.902c-0.7773-0.161-5.5795-17.287-5.0303-17.865,0.217-0.287,17.401,3.661,17.993,4.644-0.52692,1.3876-5.1412,3.8017-4.6434,4.6434,1.008,1.1269,2.0394,2.1637,3.0311,3.0956-1.3547,0.86423-2.4369,2.0312-3.0311,3.7405-1.1663-1.0281-2.3917-2.132-3.676-3.418-1.0165,0.11553-3.9025,5.2044-4.6434,5.1593zm45.144-2.387c-0.37402-0.33215-0.6093-0.76836-0.64491-1.3543,0.79471-0.59687,1.522-1.1946,2.2572-1.8058,0.09883,0.49023,0.2988,0.77822,0.51593,1.0319-0.66872,0.7117-1.3652,1.4232-2.1282,2.1282zm2.9021-3.0311c-0.20121-0.17112-0.41787-0.31907-0.38695-0.83839,1.2363-1.067,2.3635-2.1587,3.3535-3.1601-0.69763,1.2704-1.7491,2.6139-2.9666,3.9985z" fill="#5aca00"/>
 </g>
</svg>
