<?xml version="1.0" encoding="UTF-8" standalone="no"?>
<!-- Created with Inkscape (http://www.inkscape.org/) -->
<svg id="svg3003" xmlns:rdf="http://www.w3.org/1999/02/22-rdf-syntax-ns#" xmlns="http://www.w3.org/2000/svg" height="64px" width="64px" version="1.1" xmlns:cc="http://creativecommons.org/ns#" xmlns:dc="http://purl.org/dc/elements/1.1/">
 <metadata id="metadata3008">
  <rdf:RDF>
   <cc:Work rdf:about="">
    <dc:format>image/svg+xml</dc:format>
    <dc:type rdf:resource="http://purl.org/dc/dcmitype/StillImage"/>
    <dc:title/>
   </cc:Work>
  </rdf:RDF>
 </metadata>
 <g id="layer1">
  <path id="path4837-3" d="m28.273,17.752c2.5037,0.0196,4.8776,0.33628,7.2574,1.0653-0.02774,1.7506-1.2403,2.9087-2.4635,4.0615-2.0122-0.67146-3.9629-0.98798-5.8592-1.0653,0.73047-1.1661,1.367-2.3793,1.0653-4.0615zm-2.2638,0.13316c0.20241,1.3581-0.24239,2.6574-0.99873,3.9283-1.4916,0.09882-2.9258,0.35103-4.3278,0.7324,0.39465-2.0598-0.11011-2.4208-0.46607-3.0628,1.9086-0.78136,3.849-1.372,5.7926-1.598zm12.251,1.9309c1.9747,0.8911,3.997,2.1219,6.1921,3.7952-0.42961,1.1682-1.0615,2.3683-3.1293,3.7952-1.8807-1.4543-3.7177-2.6013-5.5263-3.4623,1.2246-1.1193,2.1954-2.4001,2.4635-4.1281zm-19.175,0.134c0.4398,0.86987,0.72068,1.7993,0.46607,2.9296-1.4581,0.47382-2.8496,1.1019-4.1947,1.7977,0.08589-0.9171-0.21082-1.6046-0.99873-1.9975,1.5138-1.0175,3.09-1.9771,4.7273-2.7299zm-5.6595,3.3957c0.62758,0.50261,1.0026,1.0999,0.93214,1.8643-1.1904,0.66847-2.3098,1.4267-3.3957,2.1972-0.10564-0.47584-0.28015-0.96889-0.7324-1.5314,0.9987-0.86946,2.0858-1.7352,3.1959-2.5301zm42.546,0.93214c0.8025,0.16602,5.7604,17.847,5.1934,18.443-0.22398,0.29645-17.965-3.7787-18.576-4.7939,0.54401-1.4326,5.3078-3.925,4.7939-4.7939-1.0406-1.1635-2.1055-2.2339-3.1293-3.1959,1.3986-0.89225,2.5159-2.097,3.1293-3.8617,1.2041,1.0614,2.4693,2.2011,3.7952,3.5288,1.0494-0.11927,4.029-5.3731,4.7939-5.3265zm-46.608,2.463c0.38615,0.34291,0.62905,0.79327,0.66582,1.3982-0.82047,0.61622-1.5713,1.2333-2.3304,1.8643-0.10204-0.50612-0.30848-0.80345-0.53265-1.0653,0.6904-0.73477,1.4095-1.4693,2.1972-2.1972zm-2.9962,3.1293c0.20774,0.17667,0.43141,0.32942,0.39949,0.86556-1.2764,1.1016-2.4401,2.2287-3.4623,3.2625,0.72025-1.3115,1.8058-2.6986,3.0628-4.1281z" fill="#eb4537"/>
 </g>
</svg>
